<svg height="200px" width="200px" version="1.1" id="Layer_1" xmlns="http://www.w3.org/2000/svg" xmlns:xlink="http://www.w3.org/1999/xlink" viewBox="0 0 496.158 496.158" xml:space="preserve" fill="#000000"><g id="SVGRepo_bgCarrier" stroke-width="0"></g><g id="SVGRepo_tracerCarrier" stroke-linecap="round" stroke-linejoin="round"></g><g id="SVGRepo_iconCarrier"> <path style="fill:#4f39f6;" d="M248.082,0.003C111.071,0.003,0,111.062,0,248.085c0,137.001,111.07,248.07,248.082,248.07 c137.006,0,248.076-111.069,248.076-248.07C496.159,111.062,385.088,0.003,248.082,0.003z"></path> <g> <path style="fill:#7A7774;" d="M201.736,72.553c-36.438,0-62.36,37.459-62.36,109.166c0,50.616,28.009,111.205,31.54,141.111h96.42 c5.519-39.174,24.659-100.186,24.659-141.111C291.995,110.012,238.174,72.553,201.736,72.553z"></path> <path style="fill:#7A7774;" d="M265.147,338.627h-95.284c0,0-13.94,28.738-13.94,48.83c0,20.094,19.461,43.586,49.815,43.586 s47.393-26.275,53.839-43.586C266.915,367.754,265.147,338.627,265.147,338.627z"></path> </g> <g> <path style="fill:#60605F;" d="M204.131,347.175c0,0-6.268,33.583-6.268,38.272s4.542,10.172,11.625,10.172 s11.06-6.133,12.564-10.172c1.712-4.598,4.314-38.272,4.314-38.272H204.131z"></path> <path style="fill:#60605F;" d="M214.26,401.995c-1.702,0.516-3.542,0.812-5.533,0.812c-4.36,0-8.137-1.251-11.173-3.217 c-4.729,5.029-9.332,10.406-13.717,16.369c6.251,3.917,13.96,6.391,22.821,6.391c8.989,0,16.534-2.846,22.754-7.133 c0.332-0.445,0.658-0.902,0.979-1.375L214.26,401.995z"></path> <path style="fill:#60605F;" d="M189.351,385.855c0-2.623,0.926-8.026,2.154-14.041c-6.271,0.161-17.236,0.176-22.625-1.42 c-1.541,5.586-2.667,11.426-2.667,16.568c0,8.514,4.309,17.771,11.923,24.684c1.962-2.144,9.103-10.137,13.75-17.744 C190.253,391.342,189.351,388.525,189.351,385.855z"></path> <path style="fill:#60605F;" d="M231.011,380.274c-0.424,2.364-0.874,4.315-1.344,5.581c-1.171,3.144-3.24,7.047-6.315,10.315 l15.419,10.561c5.067-5.872,8.683-12.49,10.975-18.169C244.098,386.026,236.819,382.871,231.011,380.274z"></path> <path style="fill:#60605F;" d="M177.532,347.32c0,0-3.31,6.828-6.35,15.676l21.867,1.604c1.611-7.252,3.303-14.171,4.075-17.28 H177.532z"></path> <path style="fill:#60605F;" d="M254.891,347.32h-20.394c-0.297,4.247-1.146,15.607-2.34,25.174l20.571,6.174 C255.893,363.887,254.891,347.32,254.891,347.32z"></path> <g> <path style="fill:#60605F;" d="M200.922,218.9c0,0,6.077,18.266,18.129,16.503c12.053-1.763,13.103-21.034,13.103-21.034 L200.922,218.9z"></path> <polygon style="fill:#60605F;" points="224.963,172.4 197.764,178.541 199.343,210.654 230.929,205.564 "></polygon> <path style="fill:#60605F;" d="M207.83,147.543c-9.014,0-9.517,22.68-9.517,22.68l24.267-6.904 C222.58,163.318,216.844,147.543,207.83,147.543z"></path> </g> <path style="fill:#60605F;" d="M236.826,241.957c-4.442,24.93-9.595,51.105-11.345,64.471h35.085 c1.985-14.094,6-31.443,10.023-49.459C258.768,251.605,248.953,247.513,236.826,241.957z"></path> <path style="fill:#60605F;" d="M196.9,238.703l-31.859,23.484c1.322,4.322,5.511,18.953,6.74,22.988l34.582-21.527 C204.184,259.122,199.05,243.844,196.9,238.703z"></path> <path style="fill:#60605F;" d="M187.298,208.891l-33.492,11.719c2.149,10.092,4.868,20.137,7.692,29.773l31.006-23.129 C190.472,221.42,188.675,215.289,187.298,208.891z"></path> <path style="fill:#60605F;" d="M184.603,188.661c-0.237-4.995-0.332-9.659-0.287-14.003l-34.807,1.561 c-0.077,2.486-0.13,5.004-0.13,7.594c0,6.818,0.587,13.847,1.587,20.951l33.91-12.048 C184.765,191.373,184.668,190.023,184.603,188.661z"></path> <path style="fill:#60605F;" d="M242.91,203.594c-0.948,7.728-2.391,16.957-4.06,26.76c11.647,5.201,23.099,9.877,34.291,15.041 c3.229-14.916,6.171-29.908,7.715-43.553L242.91,203.594z"></path> <path style="fill:#60605F;" d="M159.976,122.038c-4.064,9.271-7.072,20.458-8.823,33.517l33.946,4.679 c0.994-9.29,2.916-16.435,5.733-21.503L159.976,122.038z"></path> <path style="fill:#60605F;" d="M273.245,140.494l-31.439,27.345c1.45,6.169,2.284,13.101,2.284,20.822 c0,2.288-0.165,5.093-0.459,8.3l38.256-8.332c0.063-1.635,0.105-3.248,0.105-4.816 C281.993,167.254,278.689,152.797,273.245,140.494z"></path> <path style="fill:#60605F;" d="M245.988,105.283l-24.453,29.611c6.064,4.279,11.849,11.033,16.046,20.358l30.473-24.815 C261.947,120.168,254.283,111.771,245.988,105.283z"></path> <path style="fill:#60605F;" d="M203.565,88.955c-16.474,0-30.464,8.833-40.105,26.064c33.365,23.822,53.301,12.26,72.501-16.51 C224.95,92.17,213.512,88.955,203.565,88.955z"></path> </g> <path style="fill:#A07238;" d="M267.392,270.907c-3.885-3.88-10.179-3.88-14.059-0.011l-72.767,72.776 c-3.885,3.88-3.885,10.171,0,14.061c3.88,3.878,10.176,3.878,14.059,0l72.762-72.772 C271.272,281.074,271.272,274.779,267.392,270.907z"></path> <path style="fill:#D4A160;" d="M274.557,263.738c-7.3-7.301-15.977-10.471-19.379-7.076L177.9,333.953 c-3.397,3.393-0.232,12.069,7.073,19.375c7.3,7.302,15.971,10.465,19.374,7.072l77.283-77.281 C285.029,279.707,281.862,271.031,274.557,263.738z"></path> <path style="fill:#A07238;" d="M251.602,259.894l-10.164,10.16c0,0,9.282,20.506,29.247,23.654l7.376-7.371v-9.535L251.602,259.894z "></path> <circle style="fill:#60C3B6;" cx="314.42" cy="223.869" r="71.47"></circle> <circle style="fill:#83CECA;" cx="318.64" cy="230.759" r="56.15"></circle> <path style="fill:#EBEDEF;" d="M369.834,168.465c-30.604-30.602-80.21-30.602-110.817,0c-30.605,30.6-30.605,80.217,0,110.811 c30.607,30.607,80.213,30.607,110.817,0.008C400.432,248.682,400.432,199.064,369.834,168.465z M355.865,265.314 c-22.88,22.886-59.991,22.888-82.879,0c-22.891-22.884-22.891-60,0-82.881c22.889-22.889,59.999-22.889,82.879-0.004 C378.764,205.32,378.754,242.431,355.865,265.314z"></path> <path style="fill:#FFFFFF;" d="M328.859,190.498c-0.35-3.51-3.46-6.094-6.976-5.742c-33.302,3.426-45.915,30.805-46.244,31.451 c-1.463,3.194-0.069,7.006,3.127,8.475c3.208,1.491,7.014,0.071,8.487-3.111c0,0,0.062-0.15,0.37-0.708 c2.215-4.058,12.899-21.284,35.488-23.386c2.741-0.269,4.899-2.215,5.566-4.73C328.865,192.038,328.936,191.283,328.859,190.498z"></path> </g></svg>